# Blender v2.79 (sub 0) OBJ File: ''
# www.blender.org
mtllib building_living_color.mtl
o mesh1074189871
v -0.608923 0.560235 0.267298
v -0.608923 0.590236 0.267298
v -0.608923 0.590236 -0.281945
v -0.608923 0.560236 -0.281945
v 0.571065 0.590236 -0.281945
v 0.571065 0.590236 0.267298
v 0.571065 0.560236 0.267298
v 0.571065 0.560236 -0.281945
vt 0.234752 -0.376939
vt 0.233008 -0.374498
vt 0.277702 -0.342574
vt 0.279445 -0.345015
vt -0.277702 -0.342574
vt -0.233008 -0.374498
vt -0.234752 -0.376939
vt -0.279445 -0.345015
vt 0.416074 -0.152112
vt 0.468845 -0.046570
vt 0.471528 -0.047912
vt 0.418758 -0.153453
vt -0.471528 -0.047912
vt -0.468845 -0.046570
vt -0.416074 -0.152112
vt -0.418758 -0.153453
vt 0.031218 0.167265
vt 0.082942 0.148792
vt 0.043255 0.037668
vt -0.008469 0.056141
vt -0.043255 0.037668
vt -0.082942 0.148792
vt -0.031218 0.167265
vt 0.008469 0.056141
vn -1.0000 0.0000 -0.0000
vn 1.0000 0.0000 0.0000
vn 0.0000 0.0000 -1.0000
vn -0.0000 0.0000 1.0000
vn 0.0000 -1.0000 -0.0000
vn -0.0000 1.0000 0.0000
usemtl mat4
s 1
f 1/1/1 2/2/1 3/3/1 4/4/1
f 5/5/2 6/6/2 7/7/2 8/8/2
f 3/9/3 5/10/3 8/11/3 4/12/3
f 7/13/4 6/14/4 2/15/4 1/16/4
f 8/17/5 7/18/5 1/19/5 4/20/5
f 2/21/6 6/22/6 5/23/6 3/24/6
o mesh1102010222
v 0.194252 1.151114 -0.247571
v 0.194251 1.632197 -0.247571
v 0.194251 1.632197 -0.227571
v 0.194252 1.151114 -0.227571
v 0.174251 1.632197 -0.227571
v 0.174251 1.632197 -0.247571
v 0.174252 1.151114 -0.247571
v 0.174252 1.151114 -0.227571
vt -0.242307 -0.298930
vt -0.214344 -0.259782
vt -0.212717 -0.260945
vt -0.240679 -0.300092
vt 0.212717 -0.260945
vt 0.214344 -0.259782
vt 0.242307 -0.298930
vt 0.240679 -0.300092
vt -0.358797 -0.033676
vt -0.357903 -0.035465
vt -0.400932 -0.056979
vt -0.401827 -0.055190
vt 0.400932 -0.056979
vt 0.357903 -0.035465
vt 0.358797 -0.033676
vt 0.401827 -0.055190
vt 0.022992 0.128066
vt 0.021109 0.128739
vt 0.021781 0.130622
vt 0.023665 0.129949
vt -0.021781 0.130622
vt -0.021109 0.128739
vt -0.022992 0.128066
vt -0.023665 0.129949
vn 1.0000 0.0000 0.0000
vn -1.0000 -0.0000 0.0000
vn -0.0000 -0.0000 1.0000
vn 0.0000 0.0000 -1.0000
vn 0.0000 -1.0000 0.0000
vn -0.0000 1.0000 0.0000
usemtl mat25
s 1
f 9/25/7 10/26/7 11/27/7 12/28/7
f 13/29/8 14/30/8 15/31/8 16/32/8
f 11/33/9 13/34/9 16/35/9 12/36/9
f 15/37/10 14/38/10 10/39/10 9/40/10
f 16/41/11 15/42/11 9/43/11 12/44/11
f 10/45/12 14/46/12 13/47/12 11/48/12
o mesh118007661
v -0.608923 0.322021 0.267298
v -0.608923 0.352021 0.267298
v -0.608923 0.352021 -0.281945
v -0.608923 0.322020 -0.281945
v 0.571065 0.352021 -0.281945
v 0.571065 0.352021 0.267298
v 0.571066 0.322021 0.267298
v 0.571065 0.322021 -0.281945
vt 0.248598 -0.396324
vt 0.246854 -0.393882
vt 0.291548 -0.361958
vt 0.293291 -0.364399
vt -0.291548 -0.361958
vt -0.246854 -0.393882
vt -0.248598 -0.396324
vt -0.293291 -0.364399
vt 0.437381 -0.162765
vt 0.490152 -0.057223
vt 0.492835 -0.058565
vt 0.440064 -0.164107
vt -0.492835 -0.058565
vt -0.490152 -0.057223
vt -0.437381 -0.162765
vt -0.440064 -0.164107
vt 0.031218 0.167265
vt 0.082942 0.148792
vt 0.043255 0.037668
vt -0.008470 0.056141
vt -0.043255 0.037668
vt -0.082942 0.148792
vt -0.031218 0.167265
vt 0.008470 0.056141
vn -1.0000 0.0000 0.0000
vn 1.0000 0.0000 -0.0000
vn -0.0000 0.0000 -1.0000
vn 0.0000 0.0000 1.0000
vn 0.0000 -1.0000 0.0000
vn -0.0000 1.0000 -0.0000
usemtl mat5
s 1
f 17/49/13 18/50/13 19/51/13 20/52/13
f 21/53/14 22/54/14 23/55/14 24/56/14
f 19/57/15 21/58/15 24/59/15 20/60/15
f 23/61/16 22/62/16 18/63/16 17/64/16
f 24/65/17 23/66/17 17/67/17 20/68/17
f 18/69/18 22/70/18 21/71/18 19/72/18
o mesh1416141458
v 0.537382 -0.000357 0.232924
v 0.537382 0.160394 0.232924
v -0.575240 0.160394 0.232924
v -0.575240 -0.000357 0.232924
v -0.575240 0.160394 -0.247571
v 0.537382 0.160394 -0.247571
v 0.537382 -0.000357 -0.247571
v -0.575240 -0.000357 -0.247571
vt -0.520163 -0.075995
vt -0.505785 -0.068806
vt -0.456027 -0.168322
vt -0.470405 -0.175511
vt 0.456027 -0.168322
vt 0.505785 -0.068806
vt 0.520163 -0.075995
vt 0.470405 -0.175511
vt 0.260789 -0.407478
vt 0.299889 -0.379549
vt 0.309232 -0.392630
vt 0.270133 -0.420558
vt -0.309232 -0.392630
vt -0.299889 -0.379549
vt -0.260789 -0.407478
vt -0.270133 -0.420558
vt -0.004099 0.058157
vt 0.033322 0.162937
vt 0.078572 0.146776
vt 0.041151 0.041996
vt -0.078572 0.146776
vt -0.033322 0.162937
vt 0.004099 0.058157
vt -0.041151 0.041996
vn -0.0000 -0.0000 1.0000
vn 0.0000 0.0000 -1.0000
vn -1.0000 0.0000 -0.0000
vn 1.0000 -0.0000 0.0000
vn 0.0000 -1.0000 -0.0000
vn -0.0000 1.0000 0.0000
usemtl mat11
s 1
f 25/73/19 26/74/19 27/75/19 28/76/19
f 29/77/20 30/78/20 31/79/20 32/80/20
f 27/81/21 29/82/21 32/83/21 28/84/21
f 31/85/22 30/86/22 26/87/22 25/88/22
f 32/89/23 31/90/23 25/91/23 28/92/23
f 26/93/24 30/94/24 29/95/24 27/96/24
o mesh1831270919
v 0.372596 1.270005 -0.247570
v -0.004093 1.270004 -0.247572
v -0.004094 1.290004 -0.247572
v 0.372596 1.290005 -0.247570
v -0.004094 1.290004 -0.227572
v -0.004094 1.270004 -0.227572
v 0.372596 1.270005 -0.227570
v 0.372596 1.290005 -0.227570
vt 0.399169 -0.033922
vt 0.382323 -0.067614
vt 0.380534 -0.066720
vt 0.397380 -0.033027
vt -0.380534 -0.066720
vt -0.382323 -0.067614
vt -0.399169 -0.033922
vt -0.397380 -0.033027
vt -0.015110 0.111943
vt -0.016994 0.111270
vt -0.029663 0.146745
vt -0.027780 0.147418
vt 0.029663 0.146745
vt 0.016994 0.111270
vt 0.015110 0.111943
vt 0.027780 0.147418
vt -0.232606 -0.288790
vt -0.233769 -0.290418
vt -0.235396 -0.289255
vt -0.234234 -0.287628
vt 0.235396 -0.289255
vt 0.233769 -0.290418
vt 0.232606 -0.288790
vt 0.234234 -0.287628
vn 0.0000 0.0000 -1.0000
vn -0.0000 0.0000 1.0000
vn -0.0000 1.0000 0.0000
vn 0.0000 -1.0000 -0.0000
vn 1.0000 0.0000 0.0000
vn -1.0000 -0.0000 -0.0000
usemtl mat25
s 1
f 33/97/25 34/98/25 35/99/25 36/100/25
f 37/101/26 38/102/26 39/103/26 40/104/26
f 35/105/27 37/106/27 40/107/27 36/108/27
f 39/109/28 38/110/28 34/111/28 33/112/28
f 40/113/29 39/114/29 33/115/29 36/116/29
f 34/117/30 38/118/30 37/119/30 35/120/30
o mesh188454686
v 0.537382 0.741573 0.232924
v 0.537382 0.902324 0.232924
v -0.575240 0.902324 0.232924
v -0.575240 0.741573 0.232924
v -0.575240 0.902324 -0.247571
v 0.537383 0.902324 -0.247571
v 0.537383 0.741573 -0.247571
v -0.575240 0.741573 -0.247571
vt -0.453803 -0.042815
vt -0.439425 -0.035626
vt -0.389667 -0.135142
vt -0.404045 -0.142331
vt 0.389667 -0.135142
vt 0.439425 -0.035626
vt 0.453803 -0.042815
vt 0.404045 -0.142331
vt 0.217665 -0.347104
vt 0.256765 -0.319176
vt 0.266108 -0.332257
vt 0.227009 -0.360185
vt -0.266108 -0.332257
vt -0.256765 -0.319176
vt -0.217665 -0.347104
vt -0.227009 -0.360185
vt -0.004099 0.058157
vt 0.033322 0.162937
vt 0.078572 0.146776
vt 0.041151 0.041996
vt -0.078572 0.146776
vt -0.033322 0.162937
vt 0.004099 0.058157
vt -0.041151 0.041996
vn -0.0000 -0.0000 1.0000
vn 0.0000 0.0000 -1.0000
vn -1.0000 -0.0000 -0.0000
vn 1.0000 -0.0000 0.0000
vn 0.0000 -1.0000 -0.0000
vn -0.0000 1.0000 0.0000
usemtl mat10
s 1
f 41/121/31 42/122/31 43/123/31 44/124/31
f 45/125/32 46/126/32 47/127/32 48/128/32
f 43/129/33 45/130/33 48/131/33 44/132/33
f 47/133/34 46/134/34 42/135/34 41/136/34
f 48/137/35 47/138/35 41/139/35 44/140/35
f 42/141/36 46/142/36 45/143/36 43/144/36
o mesh2077073768
v 0.537382 0.990363 0.232924
v 0.537382 1.151114 0.232924
v -0.575240 1.151114 0.232924
v -0.575240 0.990363 0.232924
v -0.575240 1.151114 -0.247571
v 0.537383 1.151114 -0.247571
v 0.537383 0.990364 -0.247571
v -0.575240 0.990363 -0.247571
vt -0.431550 -0.031689
vt -0.417172 -0.024500
vt -0.367414 -0.124016
vt -0.381792 -0.131205
vt 0.367414 -0.124016
vt 0.417172 -0.024500
vt 0.431550 -0.031689
vt 0.381792 -0.131205
vt 0.203205 -0.326859
vt 0.242304 -0.298931
vt 0.251648 -0.312012
vt 0.212548 -0.339940
vt -0.251648 -0.312012
vt -0.242304 -0.298931
vt -0.203205 -0.326859
vt -0.212548 -0.339940
vt -0.004099 0.058156
vt 0.033322 0.162937
vt 0.078572 0.146776
vt 0.041151 0.041996
vt -0.078572 0.146776
vt -0.033322 0.162937
vt 0.004099 0.058156
vt -0.041151 0.041996
vn -0.0000 -0.0000 1.0000
vn 0.0000 0.0000 -1.0000
vn -1.0000 -0.0000 -0.0000
vn 1.0000 -0.0000 0.0000
vn 0.0000 -1.0000 0.0000
vn -0.0000 1.0000 0.0000
usemtl mat9
s 1
f 49/145/37 50/146/37 51/147/37 52/148/37
f 53/149/38 54/150/38 55/151/38 56/152/38
f 51/153/39 53/154/39 56/155/39 52/156/39
f 55/157/40 54/158/40 50/159/40 49/160/40
f 56/161/41 55/162/41 49/163/41 52/164/41
f 50/165/42 54/166/42 53/167/42 51/168/42
o mesh273655811
v -0.608923 0.065019 0.267298
v -0.608923 0.095018 0.267298
v -0.608923 0.095018 -0.281945
v -0.608923 0.065019 -0.281945
v 0.571065 0.095018 -0.281945
v 0.571065 0.095018 0.267298
v 0.571065 0.065019 0.267298
v 0.571065 0.065019 -0.281945
vt 0.263536 -0.417237
vt 0.261792 -0.414795
vt 0.306486 -0.382871
vt 0.308229 -0.385312
vt -0.306486 -0.382871
vt -0.261792 -0.414795
vt -0.263536 -0.417237
vt -0.308229 -0.385312
vt 0.460368 -0.174258
vt 0.513139 -0.068717
vt 0.515822 -0.070059
vt 0.463051 -0.175600
vt -0.515822 -0.070059
vt -0.513139 -0.068717
vt -0.460368 -0.174258
vt -0.463051 -0.175600
vt 0.031218 0.167265
vt 0.082942 0.148792
vt 0.043255 0.037668
vt -0.008470 0.056141
vt -0.043255 0.037668
vt -0.082942 0.148792
vt -0.031218 0.167265
vt 0.008470 0.056141
vn -1.0000 0.0000 -0.0000
vn 1.0000 0.0000 0.0000
vn 0.0000 0.0000 -1.0000
vn -0.0000 -0.0000 1.0000
vn 0.0000 -1.0000 -0.0000
vn -0.0000 1.0000 0.0000
usemtl mat5
s 1
f 57/169/43 58/170/43 59/171/43 60/172/43
f 61/173/44 62/174/44 63/175/44 64/176/44
f 59/177/45 61/178/45 64/179/45 60/180/45
f 63/181/46 62/182/46 58/183/46 57/184/46
f 64/185/47 63/186/47 57/187/47 60/188/47
f 58/189/48 62/190/48 61/191/48 59/192/48
o mesh288516067
v -0.608923 1.055738 0.267298
v -0.608923 1.085739 0.267298
v -0.608923 1.085739 -0.281945
v -0.608923 1.055739 -0.281945
v 0.571066 1.085739 -0.281945
v 0.571065 1.085739 0.267299
v 0.571065 1.055739 0.267299
v 0.571066 1.055739 -0.281945
vt 0.205951 -0.336618
vt 0.204208 -0.334177
vt 0.248901 -0.302253
vt 0.250645 -0.304694
vt -0.248901 -0.302253
vt -0.204208 -0.334177
vt -0.205951 -0.336618
vt -0.250645 -0.304694
vt 0.371755 -0.129952
vt 0.424526 -0.024411
vt 0.427209 -0.025752
vt 0.374438 -0.131294
vt -0.427209 -0.025752
vt -0.424526 -0.024411
vt -0.371755 -0.129952
vt -0.374438 -0.131294
vt 0.031218 0.167265
vt 0.082942 0.148792
vt 0.043255 0.037667
vt -0.008469 0.056141
vt -0.043255 0.037667
vt -0.082942 0.148792
vt -0.031218 0.167265
vt 0.008469 0.056141
vn -1.0000 0.0000 -0.0000
vn 1.0000 0.0000 0.0000
vn 0.0000 0.0000 -1.0000
vn -0.0000 0.0000 1.0000
vn 0.0000 -1.0000 -0.0000
vn -0.0000 1.0000 0.0000
usemtl mat3
s 1
f 65/193/49 66/194/49 67/195/49 68/196/49
f 69/197/50 70/198/50 71/199/50 72/200/50
f 67/201/51 69/202/51 72/203/51 68/204/51
f 71/205/52 70/206/52 66/207/52 65/208/52
f 72/209/53 71/210/53 65/211/53 68/212/53
f 66/213/54 70/214/54 69/215/54 67/216/54
o mesh348486097
v 0.225726 1.434178 -0.234156
v 0.233834 1.434683 -0.212325
v 0.270611 1.524012 -0.240482
v 0.251774 1.435016 -0.197472
v 0.274740 1.435087 -0.193576
v 0.296577 1.434876 -0.201682
v 0.311434 1.434441 -0.219617
v 0.315330 1.433897 -0.242576
v 0.307222 1.433392 -0.264407
v 0.289282 1.433059 -0.279260
v 0.266316 1.432988 -0.283156
v 0.244479 1.433199 -0.275051
v 0.229622 1.433634 -0.257115
vt -0.024913 -0.259978
vt -0.027242 -0.259916
vt -0.025814 -0.249956
vt -0.219976 -0.182823
vt -0.221933 -0.181560
vt -0.215534 -0.173794
vt -0.317496 -0.071329
vt -0.318872 -0.069449
vt -0.310120 -0.064484
vt -0.358120 -0.000540
vt -0.359029 0.001604
vt -0.349372 0.004431
vt -0.375360 0.022841
vt -0.375910 0.025104
vt -0.365923 0.026332
vt -0.382089 0.011263
vt -0.382340 0.013579
vt -0.372278 0.013498
vt 0.381038 0.040578
vt 0.381161 0.038251
vt 0.371118 0.038886
vt 0.378111 0.043497
vt 0.377835 0.041184
vt 0.368049 0.043525
vt 0.366946 0.042588
vt 0.366368 0.040331
vt 0.356975 0.043941
vt 0.343731 0.002356
vt 0.342787 0.000227
vt 0.334123 0.005345
vt 0.293806 -0.083904
vt 0.292383 -0.085747
vt 0.285183 -0.078718
vt 0.181397 -0.200185
vt 0.179390 -0.201367
vt 0.175322 -0.192164
vt 0.012881 0.137533
vt 0.011671 0.139523
vt 0.011617 0.141852
vt 0.012735 0.143896
vt 0.014725 0.145106
vt 0.017054 0.145160
vt 0.019098 0.144041
vt 0.020308 0.142051
vt 0.020362 0.139723
vt 0.019243 0.137679
vt 0.017253 0.136468
vt 0.014925 0.136415
vn -0.8438 0.4429 0.3031
vn -0.5740 0.4516 0.6831
vn -0.1502 0.4558 0.8773
vn 0.3138 0.4543 0.8337
vn 0.6939 0.4476 0.5640
vn 0.8882 0.4375 0.1404
vn 0.8446 0.4266 -0.3236
vn 0.5748 0.4180 -0.7035
vn 0.1510 0.4138 -0.8978
vn -0.3131 0.4152 -0.8542
vn -0.6931 0.4219 -0.5844
vn -0.8874 0.4321 -0.1608
vn -0.0009 -0.9997 0.0235
usemtl mat23
s 1
f 73/217/55 74/218/55 75/219/55
f 74/220/56 76/221/56 75/222/56
f 76/223/57 77/224/57 75/225/57
f 77/226/58 78/227/58 75/228/58
f 78/229/59 79/230/59 75/231/59
f 79/232/60 80/233/60 75/234/60
f 80/235/61 81/236/61 75/237/61
f 81/238/62 82/239/62 75/240/62
f 82/241/63 83/242/63 75/243/63
f 83/244/64 84/245/64 75/246/64
f 84/247/65 85/248/65 75/249/65
f 85/250/66 73/251/66 75/252/66
f 85/253/67 84/254/67 83/255/67 82/256/67 81/257/67 80/258/67 79/259/67 78/260/67 77/261/67 76/262/67 74/263/67 73/264/67
o mesh411202661
v 0.504916 1.079439 0.190799
v -0.542774 1.079439 0.190799
v -0.542774 0.071033 0.190799
v 0.504916 0.071033 0.190799
v -0.542774 0.071033 -0.205446
v -0.542774 1.079439 -0.205446
v 0.504916 1.079439 -0.205446
v 0.504916 0.071033 -0.205446
vt -0.422131 -0.030609
vt -0.375277 -0.124317
vt -0.465472 -0.169414
vt -0.512326 -0.075706
vt 0.465472 -0.169414
vt 0.375277 -0.124317
vt 0.422131 -0.030609
vt 0.512326 -0.075706
vt 0.038276 0.046470
vt 0.000960 0.059797
vt 0.036197 0.158463
vt 0.073513 0.145135
vt -0.036197 0.158463
vt -0.000960 0.059797
vt -0.038276 0.046470
vt -0.073513 0.145135
vt -0.301655 -0.389270
vt -0.243042 -0.307212
vt -0.210798 -0.330243
vt -0.269411 -0.412301
vt 0.210798 -0.330243
vt 0.243042 -0.307212
vt 0.301655 -0.389270
vt 0.269411 -0.412301
vn 0.0000 -0.0000 1.0000
vn -0.0000 0.0000 -1.0000
vn -0.0000 -1.0000 -0.0000
vn 0.0000 1.0000 0.0000
vn 1.0000 -0.0000 0.0000
vn -1.0000 0.0000 0.0000
usemtl mat23
s 1
f 86/265/68 87/266/68 88/267/68 89/268/68
f 90/269/69 91/270/69 92/271/69 93/272/69
f 88/273/70 90/274/70 93/275/70 89/276/70
f 92/277/71 91/278/71 87/279/71 86/280/71
f 93/281/72 92/282/72 86/283/72 89/284/72
f 87/285/73 91/286/73 90/287/73 88/288/73
o mesh464714258
v 0.457189 1.381656 -0.247570
v 0.080499 1.381655 -0.247571
v 0.080499 1.401656 -0.247571
v 0.457189 1.401656 -0.247570
v 0.080499 1.401656 -0.227571
v 0.080499 1.381655 -0.227571
v 0.457189 1.381656 -0.227570
v 0.457189 1.401656 -0.227570
vt 0.392965 -0.021362
vt 0.376119 -0.055055
vt 0.374331 -0.054160
vt 0.391177 -0.020468
vt -0.374331 -0.054160
vt -0.376119 -0.055055
vt -0.392965 -0.021362
vt -0.391177 -0.020468
vt -0.017955 0.119910
vt -0.019839 0.119237
vt -0.032508 0.154711
vt -0.030625 0.155384
vt 0.032509 0.154711
vt 0.019839 0.119237
vt 0.017955 0.119910
vt 0.030625 0.155384
vt -0.226116 -0.279705
vt -0.227279 -0.281332
vt -0.228906 -0.280170
vt -0.227744 -0.278542
vt 0.228906 -0.280170
vt 0.227279 -0.281332
vt 0.226116 -0.279705
vt 0.227744 -0.278542
vn 0.0000 0.0000 -1.0000
vn -0.0000 0.0000 1.0000
vn -0.0000 1.0000 0.0000
vn 0.0000 -1.0000 0.0000
vn 1.0000 0.0000 0.0000
vn -1.0000 0.0000 0.0000
usemtl mat25
s 1
f 94/289/74 95/290/74 96/291/74 97/292/74
f 98/293/75 99/294/75 100/295/75 101/296/75
f 96/297/76 98/298/76 101/299/76 97/300/76
f 100/301/77 99/302/77 95/303/77 94/304/77
f 101/305/78 100/306/78 94/307/78 97/308/78
f 95/309/79 99/310/79 98/311/79 96/312/79
o mesh545498417
v 0.537383 0.256645 0.232924
v 0.537383 0.417396 0.232924
v -0.575240 0.417396 0.232924
v -0.575240 0.256646 0.232924
v -0.575240 0.417396 -0.247571
v 0.537383 0.417396 -0.247571
v 0.537383 0.256645 -0.247571
v -0.575240 0.256646 -0.247571
vt -0.497176 -0.064501
vt -0.482798 -0.057312
vt -0.433040 -0.156828
vt -0.447418 -0.164017
vt 0.433040 -0.156828
vt 0.482798 -0.057312
vt 0.497176 -0.064501
vt 0.447418 -0.164017
vt 0.245851 -0.386565
vt 0.284950 -0.358636
vt 0.294294 -0.371717
vt 0.255194 -0.399645
vt -0.294294 -0.371717
vt -0.284950 -0.358636
vt -0.245851 -0.386565
vt -0.255194 -0.399646
vt -0.004099 0.058157
vt 0.033322 0.162937
vt 0.078572 0.146776
vt 0.041151 0.041996
vt -0.078572 0.146776
vt -0.033322 0.162937
vt 0.004099 0.058157
vt -0.041151 0.041996
vn 0.0000 -0.0000 1.0000
vn -0.0000 0.0000 -1.0000
vn -1.0000 0.0000 0.0000
vn 1.0000 -0.0000 0.0000
vn -0.0000 -1.0000 -0.0000
vn 0.0000 1.0000 0.0000
usemtl mat11
s 1
f 102/313/80 103/314/80 104/315/80 105/316/80
f 106/317/81 107/318/81 108/319/81 109/320/81
f 104/321/82 106/322/82 109/323/82 105/324/82
f 108/325/83 107/326/83 103/327/83 102/328/83
f 109/329/84 108/330/84 102/331/84 105/332/84
f 103/333/85 107/334/85 106/335/85 104/336/85
o mesh712597385
v 0.280125 1.144082 -0.246277
v 0.280124 1.456202 -0.246277
v 0.280124 1.456202 -0.226277
v 0.280124 1.144082 -0.226277
v 0.260124 1.456202 -0.226277
v 0.260125 1.456202 -0.246277
v 0.260125 1.144082 -0.246277
v 0.260125 1.144082 -0.226277
vt -0.242608 -0.299578
vt -0.224466 -0.274180
vt -0.222839 -0.275343
vt -0.240980 -0.300741
vt 0.222839 -0.275343
vt 0.224466 -0.274180
vt 0.242608 -0.299578
vt 0.240980 -0.300741
vt -0.378379 -0.033866
vt -0.377485 -0.035654
vt -0.405402 -0.049613
vt -0.406296 -0.047824
vt 0.405402 -0.049613
vt 0.377485 -0.035654
vt 0.378379 -0.033866
vt 0.406296 -0.047824
vt 0.026002 0.136110
vt 0.024119 0.136783
vt 0.024791 0.138666
vt 0.026675 0.137993
vt -0.024791 0.138666
vt -0.024119 0.136783
vt -0.026002 0.136110
vt -0.026675 0.137993
vn 1.0000 0.0000 0.0000
vn -1.0000 -0.0000 -0.0000
vn 0.0000 0.0000 1.0000
vn 0.0000 -0.0000 -1.0000
vn 0.0000 -1.0000 -0.0000
vn 0.0000 1.0000 0.0000
usemtl mat25
s 1
f 110/337/86 111/338/86 112/339/86 113/340/86
f 114/341/87 115/342/87 116/343/87 117/344/87
f 112/345/88 114/346/88 117/347/88 113/348/88
f 116/349/89 115/350/89 111/351/89 110/352/89
f 117/353/90 116/354/90 110/355/90 113/356/90
f 111/357/91 115/358/91 114/359/91 112/360/91
o mesh826334448
v -0.608923 0.806948 0.267298
v -0.608923 0.836948 0.267298
v -0.608923 0.836948 -0.281945
v -0.608923 0.806948 -0.281945
v 0.571066 0.836949 -0.281945
v 0.571065 0.836949 0.267298
v 0.571065 0.806949 0.267298
v 0.571066 0.806949 -0.281945
vt 0.220412 -0.356863
vt 0.218668 -0.354422
vt 0.263362 -0.322498
vt 0.265106 -0.324939
vt -0.263362 -0.322498
vt -0.218668 -0.354422
vt -0.220412 -0.356863
vt -0.265106 -0.324939
vt 0.394008 -0.141078
vt 0.446778 -0.035537
vt 0.449462 -0.036878
vt 0.396691 -0.142420
vt -0.449462 -0.036878
vt -0.446778 -0.035537
vt -0.394008 -0.141078
vt -0.396691 -0.142420
vt 0.031218 0.167265
vt 0.082942 0.148792
vt 0.043255 0.037667
vt -0.008469 0.056141
vt -0.043255 0.037667
vt -0.082942 0.148792
vt -0.031218 0.167265
vt 0.008469 0.056141
vn -1.0000 0.0000 -0.0000
vn 1.0000 0.0000 0.0000
vn 0.0000 0.0000 -1.0000
vn -0.0000 -0.0000 1.0000
vn 0.0000 -1.0000 -0.0000
vn -0.0000 1.0000 0.0000
usemtl mat4
s 1
f 118/361/92 119/362/92 120/363/92 121/364/92
f 122/365/93 123/366/93 124/367/93 125/368/93
f 120/369/94 122/370/94 125/371/94 121/372/94
f 124/373/95 123/374/95 119/375/95 118/376/95
f 125/377/96 124/378/96 118/379/96 121/380/96
f 119/381/97 123/382/97 122/383/97 120/384/97
o mesh838008695
v 0.537383 0.494860 0.232924
v 0.537383 0.655611 0.232924
v -0.575240 0.655611 0.232924
v -0.575240 0.494860 0.232924
v -0.575240 0.655611 -0.247571
v 0.537383 0.655611 -0.247571
v 0.537383 0.494861 -0.247571
v -0.575240 0.494861 -0.247571
vt -0.475869 -0.053848
vt -0.461491 -0.046659
vt -0.411733 -0.146175
vt -0.426111 -0.153364
vt 0.411733 -0.146175
vt 0.461491 -0.046659
vt 0.475869 -0.053848
vt 0.426111 -0.153364
vt 0.232005 -0.367180
vt 0.271105 -0.339252
vt 0.280448 -0.352333
vt 0.241349 -0.380261
vt -0.280448 -0.352333
vt -0.271105 -0.339252
vt -0.232005 -0.367180
vt -0.241349 -0.380261
vt -0.004099 0.058157
vt 0.033322 0.162937
vt 0.078572 0.146776
vt 0.041151 0.041996
vt -0.078572 0.146776
vt -0.033322 0.162937
vt 0.004099 0.058157
vt -0.041151 0.041996
vn -0.0000 -0.0000 1.0000
vn 0.0000 0.0000 -1.0000
vn -1.0000 0.0000 -0.0000
vn 1.0000 -0.0000 0.0000
vn 0.0000 -1.0000 0.0000
vn -0.0000 1.0000 0.0000
usemtl mat10
s 1
f 126/385/98 127/386/98 128/387/98 129/388/98
f 130/389/99 131/390/99 132/391/99 133/392/99
f 128/393/100 130/394/100 133/395/100 129/396/100
f 132/397/101 131/398/101 127/399/101 126/400/101
f 133/401/102 132/402/102 126/403/102 129/404/102
f 127/405/103 131/406/103 130/407/103 128/408/103
o mesh879744058
v 0.090725 1.570610 -0.209549
v 0.107137 1.572744 -0.171589
v 0.185355 1.720044 -0.236276
v 0.140249 1.571897 -0.146734
v 0.181188 1.568297 -0.141644
v 0.218985 1.562907 -0.157683
v 0.243511 1.557173 -0.190553
v 0.248196 1.552630 -0.231446
v 0.231784 1.550496 -0.269406
v 0.198672 1.551342 -0.294261
v 0.157733 1.554943 -0.299351
v 0.119936 1.560332 -0.283312
v 0.095410 1.566067 -0.250442
vt -0.032933 -0.220152
vt -0.037056 -0.219760
vt -0.033312 -0.202268
vt -0.205165 -0.149001
vt -0.208674 -0.146802
vt -0.197486 -0.132845
vt -0.300349 -0.051736
vt -0.302989 -0.048545
vt -0.287980 -0.038813
vt -0.345227 0.005500
vt -0.347175 0.009154
vt -0.330523 0.015688
vt -0.364950 0.004442
vt -0.366465 0.008296
vt -0.349170 0.012867
vt -0.361381 -0.077311
vt -0.363004 -0.073501
vt -0.345845 -0.068444
vt 0.222224 -0.295765
vt 0.218809 -0.298106
vt 0.210471 -0.282280
vt 0.368664 -0.032984
vt 0.367206 -0.036860
vt 0.351304 -0.028668
vt 0.362392 0.013471
vt 0.360754 0.009668
vt 0.345255 0.018599
vt 0.336694 -0.006252
vt 0.334520 -0.009777
vt 0.320484 0.001314
vt 0.279195 -0.081073
vt 0.276248 -0.083983
vt 0.265239 -0.069883
vt 0.158835 -0.181185
vt 0.155029 -0.182817
vt 0.149933 -0.165669
vt -0.007340 0.163760
vt -0.009744 0.167131
vt -0.010140 0.171254
vt -0.008422 0.175021
vt -0.005050 0.177425
vt -0.000928 0.177821
vt 0.002840 0.176103
vt 0.005244 0.172731
vt 0.005640 0.168609
vt 0.003922 0.164841
vt 0.000550 0.162437
vt -0.003572 0.162041
vn -0.7787 0.5478 0.3059
vn -0.4901 0.5553 0.6719
vn -0.0587 0.5294 0.8463
vn 0.4001 0.4770 0.7825
vn 0.7632 0.4122 0.4976
vn 0.9334 0.3523 0.0678
vn 0.8651 0.3134 -0.3916
vn 0.5765 0.3059 -0.7576
vn 0.1451 0.3318 -0.9321
vn -0.3137 0.3842 -0.8683
vn -0.6768 0.4490 -0.5833
vn -0.8470 0.5089 -0.1536
vn -0.0993 -0.9902 0.0986
usemtl mat23
s 1
f 134/409/104 135/410/104 136/411/104
f 135/412/105 137/413/105 136/414/105
f 137/415/106 138/416/106 136/417/106
f 138/418/107 139/419/107 136/420/107
f 139/421/108 140/422/108 136/423/108
f 140/424/109 141/425/109 136/426/109
f 141/427/110 142/428/110 136/429/110
f 142/430/111 143/431/111 136/432/111
f 143/433/112 144/434/112 136/435/112
f 144/436/113 145/437/113 136/438/113
f 145/439/114 146/440/114 136/441/114
f 146/442/115 134/443/115 136/444/115
f 146/445/116 145/446/116 144/447/116 143/448/116 142/449/116 141/450/116 140/451/116 139/452/116 138/453/116 137/454/116 135/455/116 134/456/116
